<svg xmlns="http://www.w3.org/2000/svg" x="0px" y="0px"
            width="200" height="200"
            viewBox="0 0 225 225"
            style=" fill:#000000;"><g fill="none" fill-rule="nonzero" stroke="none" stroke-width="1" stroke-linecap="butt" stroke-linejoin="miter" stroke-miterlimit="10" stroke-dasharray="" stroke-dashoffset="0" font-family="none" font-weight="none" font-size="none" text-anchor="none" style="mix-blend-mode: normal"><path d="M0,225.98959v-225.98959h225.98959v225.98959z" fill="none"></path><g><path d="M65.25,148.5h101.25l40.5,-6.75h4.5c3.72825,0 6.75,-3.02175 6.75,-6.75v-20.25c0,-2.48625 -2.01375,-4.5 -4.5,-4.5v-0.0045c0.00675,-5.1885 -3.74175,-9.621 -8.8605,-10.47375l-31.6395,-5.27175l-17.58825,-24.9165c-5.90175,-8.361 -15.498,-13.3335 -25.73325,-13.3335h-54.567c-10.683,0 -20.817,4.74525 -27.657,12.95325l-22.9545,27.54675c-9.86625,7.6725 -18,15.75 -18,33.309v0.441c0,6.21225 5.03775,11.25 11.25,11.25h6.75z" fill="#fcc207"></path><rect x="29" y="65" transform="scale(2.25,2.25)" width="45" height="2" fill="#1f212b"></rect><path d="M211.5,144h-4.5v-4.5h4.5c2.48175,0 4.5,-2.01825 4.5,-4.5v-20.25c0,-1.242 -1.01025,-2.25 -2.25,-2.25c-0.5985,0 -1.17,-0.23625 -1.593,-0.65925c-0.42075,-0.423 -0.657,-0.9945 -0.657,-1.593c0.0045,-4.1085 -2.9295,-7.58025 -6.98175,-8.25525l-31.6395,-5.274c-0.59175,-0.099 -1.12275,-0.42975 -1.467,-0.92025l-17.586,-24.91425c-5.47425,-7.7535 -14.40675,-12.384 -23.89725,-12.384h-54.567c-10.04625,0 -19.49625,4.42575 -25.92675,12.14325l-22.95675,27.549c-0.1035,0.12375 -0.2205,0.234 -0.3465,0.333c-9.3735,7.29 -17.1315,14.69475 -17.1315,31.53375v0.441c0,4.9635 4.0365,9 9,9h6.75v4.5h-6.75c-7.44525,0 -13.5,-6.05475 -13.5,-13.5v-0.441c0,-18.72675 8.811,-27.24075 18.67725,-34.9335l22.8015,-27.36225c7.28775,-8.74575 18,-13.761 29.385,-13.761h54.567c10.95075,0 21.258,5.3415 27.5715,14.2875l17.046,24.147l30.7125,5.11875c5.59125,0.9315 9.801,5.32575 10.602,10.782c2.68875,0.891 4.63725,3.43125 4.63725,6.4125v20.25c0,4.9635 -4.0365,9 -9,9z" fill="#1f212b"></path><path d="M91.125,148.5c-0.621,0 -1.125,-0.504 -1.125,-1.125v-90c0,-0.621 0.504,-1.125 1.125,-1.125c0.621,0 1.125,0.504 1.125,1.125v90c0,0.621 -0.504,1.125 -1.125,1.125z" fill="#1f212b"></path><path d="M222.75,137.25h-6.75c-1.242,0 -2.25,-1.00575 -2.25,-2.25c0,-1.24425 1.008,-2.25 2.25,-2.25h6.75c1.242,0 2.25,1.00575 2.25,2.25c0,1.24425 -1.008,2.25 -2.25,2.25z" fill="#1f212b"></path><path d="M212.625,112.5h-121.5c-0.621,0 -1.125,-0.504 -1.125,-1.125c0,-0.621 0.504,-1.125 1.125,-1.125h121.5c0.621,0 1.125,0.504 1.125,1.125c0,0.621 -0.504,1.125 -1.125,1.125z" fill="#1f212b"></path><path d="M7.875,119.25c-0.504,0 -0.963,-0.33975 -1.089,-0.85275c-0.15075,-0.603 0.216,-1.21275 0.819,-1.3635l16.78725,-4.19625c6.8625,-1.71675 13.92975,-2.5875 21.00825,-2.5875h38.9745c0.621,0 1.125,0.504 1.125,1.125c0,0.621 -0.504,1.125 -1.125,1.125h-38.9745c-6.894,0 -13.779,0.84825 -20.466,2.52l-16.78725,4.19625c-0.09,0.0225 -0.18225,0.03375 -0.27225,0.03375z" fill="#1f212b"></path><path d="M15.75,132.75h-13.5c-1.242,0 -2.25,-1.00575 -2.25,-2.25c0,-1.24425 1.008,-2.25 2.25,-2.25h13.5c1.242,0 2.25,1.00575 2.25,2.25c0,1.24425 -1.008,2.25 -2.25,2.25z" fill="#1f212b"></path><path d="M18,103.5h-4.5c-1.242,0 -2.25,-1.00575 -2.25,-2.25c0,-1.24425 1.008,-2.25 2.25,-2.25h4.5c1.242,0 2.25,1.00575 2.25,2.25c0,1.24425 -1.008,2.25 -2.25,2.25z" fill="#1f212b"></path><path d="M109.125,105.75h-11.25c-0.621,0 -1.125,-0.504 -1.125,-1.125c0,-0.621 0.504,-1.125 1.125,-1.125h11.25c0.621,0 1.125,0.504 1.125,1.125c0,0.621 -0.504,1.125 -1.125,1.125z" fill="#1f212b"></path><path d="M102.375,97.875h46.60875c5.98275,0 9.47925,-6.7455 6.03,-11.63475l-7.63425,-10.818c-4.005,-5.67225 -10.5165,-9.04725 -17.46,-9.04725h-27.5445c-2.48625,0 -4.5,2.01375 -4.5,4.5v22.5c0,2.48625 2.01375,4.5 4.5,4.5z" fill="#c7dff1"></path><path d="M148.98375,99h-46.60875c-3.1005,0 -5.625,-2.52225 -5.625,-5.625v-22.5c0,-3.10275 2.5245,-5.625 5.625,-5.625h27.5445c7.299,0 14.1705,3.5595 18.38025,9.52425l7.63425,10.818c1.83825,2.6055 2.07,5.985 0.603,8.81775c-1.4715,2.8305 -4.36275,4.59 -7.55325,4.59zM102.375,67.5c-1.86075,0 -3.375,1.51425 -3.375,3.375v22.5c0,1.86075 1.51425,3.375 3.375,3.375h46.60875c2.3805,0 4.455,-1.26225 5.55075,-3.375c1.09575,-2.115 0.9315,-4.5405 -0.44325,-6.48675l-7.63425,-10.818c-3.7845,-5.36625 -9.96975,-8.57025 -16.5375,-8.57025z" fill="#1f212b"></path><path d="M79.875,66.375h-4.5135c-7.677,0 -14.958,3.411 -19.87425,9.3105l-7.48125,8.9775c-4.37175,5.247 -0.64125,13.212 6.1875,13.212h25.6815c2.484,0 4.5,-2.01375 4.5,-4.5v-22.5c0,-2.48625 -2.01375,-4.5 -4.5,-4.5z" fill="#c7dff1"></path><path d="M79.875,99h-25.6815c-3.6,0 -6.786,-2.025 -8.3115,-5.28525c-1.52775,-3.26025 -1.044,-7.0065 1.26,-9.774l7.48125,-8.9775c5.1435,-6.174 12.70125,-9.71325 20.73825,-9.71325h4.5135c3.1005,0 5.625,2.52225 5.625,5.625v22.5c0,3.10275 -2.52225,5.625 -5.625,5.625zM75.3615,67.5c-7.3665,0 -14.2965,3.2445 -19.01025,8.9055l-7.48125,8.9775c-1.73925,2.088 -2.106,4.91625 -0.95175,7.3755c1.15425,2.4615 3.55725,3.9915 6.27525,3.9915h25.6815c1.86075,0 3.375,-1.51425 3.375,-3.375v-22.5c0,-1.86075 -1.51425,-3.375 -3.375,-3.375z" fill="#1f212b"></path><path d="M136.125,90c-0.621,0 -1.125,-0.504 -1.125,-1.125v-21.375c0,-0.621 0.504,-1.125 1.125,-1.125c0.621,0 1.125,0.504 1.125,1.125v21.375c0,0.621 -0.504,1.125 -1.125,1.125z" fill="#1f212b"></path><path d="M136.125,99c-0.621,0 -1.125,-0.504 -1.125,-1.125v-4.5c0,-0.621 0.504,-1.125 1.125,-1.125c0.621,0 1.125,0.504 1.125,1.125v4.5c0,0.621 -0.504,1.125 -1.125,1.125z" fill="#1f212b"></path><path d="M221.625,127.125h-2.25v-13.5h2.25c1.242,0 2.25,1.008 2.25,2.25v9c0,1.242 -1.008,2.25 -2.25,2.25z" fill="#fef6aa"></path><path d="M221.625,128.25h-2.25c-0.621,0 -1.125,-0.504 -1.125,-1.125v-13.5c0,-0.621 0.504,-1.125 1.125,-1.125h2.25c1.86075,0 3.375,1.51425 3.375,3.375v9c0,1.86075 -1.51425,3.375 -3.375,3.375zM220.5,126h1.125c0.621,0 1.125,-0.50625 1.125,-1.125v-9c0,-0.61875 -0.504,-1.125 -1.125,-1.125h-1.125z" fill="#1f212b"></path><circle cx="20" cy="65" transform="scale(2.25,2.25)" r="9.5" fill="#565fa1"></circle><circle cx="20" cy="65" transform="scale(2.25,2.25)" r="7" fill="#ffffff"></circle><circle cx="20" cy="65" transform="scale(2.25,2.25)" r="3.5" fill="#ceccbe"></circle><path d="M45,155.25c-4.9635,0 -9,-4.0365 -9,-9c0,-4.9635 4.0365,-9 9,-9c4.9635,0 9,4.0365 9,9c0,4.9635 -4.0365,9 -9,9zM45,139.5c-3.7215,0 -6.75,3.0285 -6.75,6.75c0,3.7215 3.0285,6.75 6.75,6.75c3.7215,0 6.75,-3.0285 6.75,-6.75c0,-3.7215 -3.0285,-6.75 -6.75,-6.75z" fill="#1f212b"></path><path d="M45,168.75c-12.4065,0 -22.5,-10.0935 -22.5,-22.5c0,-12.4065 10.0935,-22.5 22.5,-22.5c12.4065,0 22.5,10.0935 22.5,22.5c0,12.4065 -10.0935,22.5 -22.5,22.5zM45,126c-11.1645,0 -20.25,9.08325 -20.25,20.25c0,11.16675 9.0855,20.25 20.25,20.25c11.1645,0 20.25,-9.08325 20.25,-20.25c0,-11.16675 -9.0855,-20.25 -20.25,-20.25z" fill="#1f212b"></path><path d="M59.21775,144c-0.51075,0 -0.972,-0.3465 -1.0935,-0.86625c-0.18,-0.75375 -0.40275,-1.4535 -0.6615,-2.07675c-0.2385,-0.57375 0.0315,-1.23075 0.60525,-1.46925c0.57375,-0.23625 1.233,0.02925 1.4715,0.60525c0.30825,0.7335 0.567,1.55025 0.774,2.42325c0.144,0.60525 -0.2295,1.2105 -0.83475,1.3545c-0.08775,0.02025 -0.1755,0.02925 -0.261,0.02925z" fill="#1f212b"></path><path d="M55.48275,137.25c-0.29475,0 -0.5895,-0.117 -0.81,-0.34425c-1.332,-1.38375 -2.8395,-2.43225 -4.47975,-3.11625c-0.57375,-0.2385 -0.84375,-0.89775 -0.60525,-1.4715c0.24075,-0.576 0.9,-0.8325 1.4715,-0.6075c1.926,0.80325 3.69,2.025 5.23575,3.63375c0.42975,0.44775 0.4185,1.161 -0.0315,1.59075c-0.21825,0.20925 -0.4995,0.315 -0.78075,0.315z" fill="#1f212b"></path><path d="M45,162c-8.685,0 -15.75,-7.06725 -15.75,-15.75c0,-8.68275 7.065,-15.75 15.75,-15.75c0.4095,0 0.81,0.0315 1.2105,0.0585c0.61875,0.04725 1.08225,0.5895 1.035,1.20825c-0.04725,0.61875 -0.594,1.07775 -1.20825,1.03725c-0.342,-0.027 -0.68625,-0.054 -1.03725,-0.054c-7.44525,0 -13.5,6.05475 -13.5,13.5c0,7.44525 6.05475,13.5 13.5,13.5c2.583,0 5.0985,-0.73575 7.2675,-2.12625c0.51975,-0.3375 1.2195,-0.18675 1.55475,0.33975c0.33525,0.522 0.1845,1.21725 -0.33975,1.5525c-2.5335,1.6245 -5.4675,2.484 -8.4825,2.484z" fill="#1f212b"></path><circle cx="83" cy="65" transform="scale(2.25,2.25)" r="9.5" fill="#565fa1"></circle><circle cx="83" cy="65" transform="scale(2.25,2.25)" r="7" fill="#ffffff"></circle><circle cx="83" cy="65" transform="scale(2.25,2.25)" r="3.5" fill="#ceccbe"></circle><path d="M186.75,168.75c-12.4065,0 -22.5,-10.0935 -22.5,-22.5c0,-12.4065 10.0935,-22.5 22.5,-22.5c12.4065,0 22.5,10.0935 22.5,22.5c0,12.4065 -10.0935,22.5 -22.5,22.5zM186.75,126c-11.1645,0 -20.25,9.08325 -20.25,20.25c0,11.16675 9.0855,20.25 20.25,20.25c11.1645,0 20.25,-9.08325 20.25,-20.25c0,-11.16675 -9.0855,-20.25 -20.25,-20.25z" fill="#1f212b"></path><path d="M186.75,155.25c-4.9635,0 -9,-4.0365 -9,-9c0,-4.9635 4.0365,-9 9,-9c4.9635,0 9,4.0365 9,9c0,4.9635 -4.0365,9 -9,9zM186.75,139.5c-3.7215,0 -6.75,3.0285 -6.75,6.75c0,3.7215 3.0285,6.75 6.75,6.75c3.7215,0 6.75,-3.0285 6.75,-6.75c0,-3.7215 -3.0285,-6.75 -6.75,-6.75z" fill="#1f212b"></path><path d="M200.96775,144c-0.51075,0 -0.972,-0.3465 -1.0935,-0.86625c-0.18,-0.75375 -0.40275,-1.4535 -0.6615,-2.07675c-0.2385,-0.57375 0.0315,-1.23075 0.60525,-1.46925c0.5715,-0.23625 1.233,0.02925 1.4715,0.60525c0.30825,0.7335 0.567,1.55025 0.774,2.42325c0.144,0.60525 -0.2295,1.2105 -0.83475,1.3545c-0.08775,0.02025 -0.1755,0.02925 -0.261,0.02925z" fill="#1f212b"></path><path d="M197.23275,137.25c-0.29475,0 -0.5895,-0.117 -0.81,-0.34425c-1.332,-1.38375 -2.8395,-2.43225 -4.47975,-3.11625c-0.57375,-0.2385 -0.84375,-0.89775 -0.60525,-1.4715c0.2385,-0.576 0.89775,-0.8325 1.4715,-0.6075c1.926,0.80325 3.69,2.025 5.23575,3.63375c0.42975,0.44775 0.4185,1.161 -0.0315,1.59075c-0.21825,0.20925 -0.4995,0.315 -0.78075,0.315z" fill="#1f212b"></path><path d="M186.75,162c-8.685,0 -15.75,-7.06725 -15.75,-15.75c0,-8.68275 7.065,-15.75 15.75,-15.75c0.4095,0 0.81,0.0315 1.2105,0.0585c0.61875,0.04725 1.08225,0.5895 1.035,1.20825c-0.04725,0.61875 -0.6075,1.07775 -1.20825,1.03725c-0.342,-0.027 -0.68625,-0.054 -1.03725,-0.054c-7.44525,0 -13.5,6.05475 -13.5,13.5c0,7.44525 6.05475,13.5 13.5,13.5c2.583,0 5.0985,-0.73575 7.2675,-2.12625c0.522,-0.3375 1.2195,-0.18675 1.55475,0.33975c0.33525,0.522 0.1845,1.21725 -0.33975,1.5525c-2.5335,1.6245 -5.4675,2.484 -8.4825,2.484z" fill="#1f212b"></path><path d="M218.25,171h-195.75c-1.242,0 -2.25,-1.00575 -2.25,-2.25c0,-1.24425 1.008,-2.25 2.25,-2.25h195.75c1.242,0 2.25,1.00575 2.25,2.25c0,1.24425 -1.008,2.25 -2.25,2.25z" fill="#1f212b"></path><path d="M13.5,171h-6.75c-1.242,0 -2.25,-1.00575 -2.25,-2.25c0,-1.24425 1.008,-2.25 2.25,-2.25h6.75c1.242,0 2.25,1.00575 2.25,2.25c0,1.24425 -1.008,2.25 -2.25,2.25z" fill="#1f212b"></path></g></g></svg>